<svg width="240" height="240" viewBox="0 0 240 240" fill="none" xmlns="http://www.w3.org/2000/svg">
<g clip-path="url(#clip0_306_264)">
<path d="M170 127.055C170 162.697 148.731 185.609 113 183.912L155.537 127.055L113 70.1988C148.731 67.6531 170 89.7167 170 127.055Z" fill="#F1F5F9"/>
<path d="M49.338 216V36.8H119.482C132.282 36.8 143.802 38.9333 154.042 43.2C164.453 47.4667 173.327 53.6107 180.666 61.632C188.005 69.6533 193.637 79.1253 197.562 90.048C201.487 100.971 203.45 113.088 203.45 126.4C203.45 139.712 201.487 151.915 197.562 163.008C193.637 173.931 188.005 183.403 180.666 191.424C173.498 199.275 164.709 205.333 154.298 209.6C143.887 213.867 132.282 216 119.482 216H49.338ZM76.986 192.192L76.218 189.376H118.202C127.247 189.376 135.269 187.925 142.266 185.024C149.434 182.123 155.407 178.027 160.186 172.736C165.135 167.275 168.89 160.619 171.45 152.768C174.01 144.917 175.29 136.128 175.29 126.4C175.29 116.672 174.01 107.968 171.45 100.288C168.89 92.4373 165.135 85.7813 160.186 80.32C155.237 74.8587 149.263 70.6773 142.266 67.776C135.269 64.8747 127.247 63.424 118.202 63.424H75.45L76.986 61.12V192.192Z" fill="#F1F5F9"/>
</g>
<defs>
<clipPath id="clip0_306_264">
<rect width="240" height="240" fill="white"/>
</clipPath>
</defs>
</svg>
